<svg id="Icons" xmlns="http://www.w3.org/2000/svg" viewBox="0 0 512 512"><defs><style>.cls-1{fill:#e52e44;}.cls-2{fill:#fa4654;}.cls-3{fill:#efb732;}.cls-4{fill:#fbdb58;}.cls-5{fill:#f9eaa5;}.cls-6{fill:#eea47d;}.cls-7{fill:#d48d77;}.cls-8{fill:#f3c3b1;}.cls-9{fill:#f5b890;}</style></defs><title>019-beer-export</title><circle class="cls-1" cx="256" cy="256" r="256"/><circle class="cls-2" cx="256" cy="256" r="205.64"/><path class="cls-3" d="M260.73,163V358.81a4.68,4.68,0,0,1-2.44,4.14,4.67,4.67,0,0,1-2.29.59,4.73,4.73,0,0,1-4.73-4.73V163a4.73,4.73,0,0,1,4.73-4.73,4.78,4.78,0,0,1,2.29.59A4.71,4.71,0,0,1,260.73,163Z"/><path class="cls-4" d="M260.73,163V358.81a4.68,4.68,0,0,1-2.44,4.14,4.73,4.73,0,0,1-2.45-4.14V163a4.72,4.72,0,0,1,2.45-4.14A4.71,4.71,0,0,1,260.73,163Z"/><path class="cls-3" d="M245.11,282.17v14.26a1.37,1.37,0,0,1-2.15,1.14c-13.2-9.19-39.41.22-40.59-47.19a1.38,1.38,0,0,1,2.35-1l1.21,1.22,9.42,9.42a18.35,18.35,0,0,0,13,5.37,16.8,16.8,0,0,1,16.79,16.79Z"/><path class="cls-4" d="M245.11,282.17v7.42c-12.7-7.66-35.59-1.15-39.18-39l9.42,9.42a18.35,18.35,0,0,0,13,5.37,16.8,16.8,0,0,1,16.79,16.79Z"/><ellipse class="cls-5" cx="223.41" cy="270.7" rx="4.34" ry="7.05" transform="translate(-98.74 410.02) rotate(-73.85)"/><ellipse class="cls-5" cx="236.36" cy="276.86" rx="3.03" ry="4.91" transform="translate(-127.23 294.66) rotate(-52.31)"/><path class="cls-3" d="M245.11,245.72V260a1.37,1.37,0,0,1-2.15,1.14c-13.2-9.19-39.41.22-40.59-47.19a1.38,1.38,0,0,1,2.35-1l1.21,1.22,9.42,9.42a18.35,18.35,0,0,0,13,5.37,16.8,16.8,0,0,1,16.79,16.79Z"/><path class="cls-4" d="M245.11,245.72v7.42c-12.7-7.66-35.59-1.15-39.18-39l9.42,9.42a18.35,18.35,0,0,0,13,5.37,16.8,16.8,0,0,1,16.79,16.79Z"/><ellipse class="cls-5" cx="223.41" cy="234.25" rx="4.34" ry="7.05" transform="translate(-63.72 383.71) rotate(-73.85)"/><ellipse class="cls-5" cx="236.36" cy="240.41" rx="3.03" ry="4.91" transform="translate(-98.38 280.49) rotate(-52.31)"/><path class="cls-3" d="M245.11,209.27v14.26a1.37,1.37,0,0,1-2.15,1.14c-13.2-9.19-39.41.22-40.59-47.19a1.38,1.38,0,0,1,2.35-1l1.21,1.22,9.42,9.42a18.35,18.35,0,0,0,13,5.37,16.8,16.8,0,0,1,16.79,16.79Z"/><path class="cls-4" d="M245.11,209.27v7.42c-12.7-7.66-35.59-1.15-39.18-39l9.42,9.42a18.35,18.35,0,0,0,13,5.37,16.8,16.8,0,0,1,16.79,16.79Z"/><ellipse class="cls-5" cx="223.41" cy="197.8" rx="4.34" ry="7.05" transform="translate(-28.71 357.39) rotate(-73.85)"/><ellipse class="cls-5" cx="236.36" cy="203.95" rx="3.03" ry="4.91" transform="matrix(0.61, -0.79, 0.79, 0.61, -69.54, 266.32)"/><path class="cls-3" d="M245.11,172.82v14.26a1.38,1.38,0,0,1-2.15,1.14c-13.2-9.19-39.41.22-40.59-47.19a1.38,1.38,0,0,1,2.35-1l1.21,1.21,9.42,9.43a18.35,18.35,0,0,0,13,5.37,16.8,16.8,0,0,1,16.79,16.79Z"/><path class="cls-4" d="M245.11,172.82v7.42c-12.7-7.66-35.59-1.15-39.18-39l9.42,9.43a18.35,18.35,0,0,0,13,5.37,16.8,16.8,0,0,1,16.79,16.79Z"/><ellipse class="cls-5" cx="223.41" cy="161.34" rx="4.34" ry="7.05" transform="translate(6.3 331.08) rotate(-73.85)"/><ellipse class="cls-5" cx="236.36" cy="167.5" rx="3.03" ry="4.91" transform="translate(-40.69 252.16) rotate(-52.31)"/><path class="cls-3" d="M250.42,141.12l-1.24,14.2a1.37,1.37,0,0,1-2.24.94c-12.36-10.29-39.28-3.2-36.33-50.54a1.38,1.38,0,0,1,2.43-.8l1.1,1.32,8.57,10.2a18.33,18.33,0,0,0,12.45,6.49,16.78,16.78,0,0,1,15.26,18.19Z"/><path class="cls-4" d="M250.42,141.12l-.65,7.39c-12-8.74-35.35-4.25-35.63-42.27l8.57,10.2a18.33,18.33,0,0,0,12.45,6.49,16.78,16.78,0,0,1,15.26,18.19Z"/><ellipse class="cls-5" cx="229.8" cy="127.79" rx="4.34" ry="7.05" transform="translate(27.72 296.02) rotate(-68.85)"/><ellipse class="cls-5" cx="242.17" cy="135.06" rx="3.03" ry="4.91" transform="translate(-21.29 221.5) rotate(-47.31)"/><path class="cls-3" d="M266.89,282.17v14.26a1.37,1.37,0,0,0,2.15,1.14c13.2-9.19,39.41.22,40.59-47.19a1.38,1.38,0,0,0-2.35-1l-1.21,1.22L296.65,260a18.35,18.35,0,0,1-13,5.37,16.8,16.8,0,0,0-16.79,16.79Z"/><path class="cls-4" d="M266.89,282.17v7.42c12.7-7.66,35.59-1.15,39.18-39L296.65,260a18.35,18.35,0,0,1-13,5.37,16.8,16.8,0,0,0-16.79,16.79Z"/><ellipse class="cls-5" cx="288.59" cy="270.7" rx="7.05" ry="4.34" transform="translate(-63.89 90.93) rotate(-16.15)"/><ellipse class="cls-5" cx="275.64" cy="276.86" rx="4.91" ry="3.03" transform="translate(-111.75 226.27) rotate(-37.69)"/><path class="cls-3" d="M266.89,245.72V260a1.37,1.37,0,0,0,2.15,1.14c13.2-9.19,39.41.22,40.59-47.19a1.38,1.38,0,0,0-2.35-1l-1.21,1.22-9.42,9.42a18.35,18.35,0,0,1-13,5.37,16.8,16.8,0,0,0-16.79,16.79Z"/><path class="cls-4" d="M266.89,245.72v7.42c12.7-7.66,35.59-1.15,39.18-39l-9.42,9.42a18.35,18.35,0,0,1-13,5.37,16.8,16.8,0,0,0-16.79,16.79Z"/><ellipse class="cls-5" cx="288.59" cy="234.25" rx="7.05" ry="4.34" transform="matrix(0.96, -0.28, 0.28, 0.96, -53.76, 89.49)"/><ellipse class="cls-5" cx="275.64" cy="240.41" rx="4.91" ry="3.03" transform="translate(-89.46 218.66) rotate(-37.69)"/><path class="cls-3" d="M266.89,209.27v14.26a1.37,1.37,0,0,0,2.15,1.14c13.2-9.19,39.41.22,40.59-47.19a1.38,1.38,0,0,0-2.35-1l-1.21,1.22-9.42,9.42a18.35,18.35,0,0,1-13,5.37,16.8,16.8,0,0,0-16.79,16.79Z"/><path class="cls-4" d="M266.89,209.27v7.42c12.7-7.66,35.59-1.15,39.18-39l-9.42,9.42a18.35,18.35,0,0,1-13,5.37,16.8,16.8,0,0,0-16.79,16.79Z"/><ellipse class="cls-5" cx="288.59" cy="197.8" rx="7.05" ry="4.34" transform="translate(-43.62 88.05) rotate(-16.15)"/><ellipse class="cls-5" cx="275.64" cy="203.95" rx="4.91" ry="3.03" transform="translate(-67.18 211.06) rotate(-37.69)"/><path class="cls-3" d="M266.89,172.82v14.26a1.38,1.38,0,0,0,2.15,1.14c13.2-9.19,39.41.22,40.59-47.19a1.38,1.38,0,0,0-2.35-1l-1.21,1.21-9.42,9.43a18.35,18.35,0,0,1-13,5.37,16.8,16.8,0,0,0-16.79,16.79Z"/><path class="cls-4" d="M266.89,172.82v7.42c12.7-7.66,35.59-1.15,39.18-39l-9.42,9.43a18.35,18.35,0,0,1-13,5.37,16.8,16.8,0,0,0-16.79,16.79Z"/><ellipse class="cls-5" cx="288.59" cy="161.34" rx="7.05" ry="4.34" transform="matrix(0.96, -0.28, 0.28, 0.96, -33.48, 86.61)"/><ellipse class="cls-5" cx="275.64" cy="167.5" rx="4.91" ry="3.03" transform="translate(-44.9 203.45) rotate(-37.69)"/><path class="cls-3" d="M261.58,141.12l1.24,14.2a1.37,1.37,0,0,0,2.24.94c12.36-10.29,39.28-3.2,36.33-50.54a1.38,1.38,0,0,0-2.43-.8l-1.1,1.32-8.57,10.2a18.33,18.33,0,0,1-12.45,6.49,16.78,16.78,0,0,0-15.26,18.19Z"/><path class="cls-4" d="M261.58,141.12l.65,7.39c12-8.74,35.35-4.25,35.63-42.27l-8.57,10.2a18.33,18.33,0,0,1-12.45,6.49,16.78,16.78,0,0,0-15.26,18.19Z"/><ellipse class="cls-5" cx="282.2" cy="127.79" rx="7.05" ry="4.34" transform="matrix(0.93, -0.36, 0.36, 0.93, -27.1, 110.4)"/><ellipse class="cls-5" cx="269.83" cy="135.06" rx="4.91" ry="3.03" transform="translate(-20.08 218.72) rotate(-42.69)"/><path class="cls-3" d="M253.38,109.79l-3.69,13.77a1.37,1.37,0,0,1-2.37.54c-10.38-12.29-38.13-10-27-56.09a1.38,1.38,0,0,1,2.53-.36l.86,1.49,6.66,11.54a18.34,18.34,0,0,0,11.14,8.54,16.81,16.81,0,0,1,11.87,20.57Z"/><path class="cls-4" d="M253.38,109.79,251.46,117c-10.28-10.69-34.08-10.32-27.75-47.81l6.66,11.54a18.34,18.34,0,0,0,11.14,8.54,16.81,16.81,0,0,1,11.87,20.57Z"/><ellipse class="cls-5" cx="235.39" cy="93.08" rx="4.34" ry="7.05" transform="matrix(0.52, -0.86, 0.86, 0.52, 33.98, 246.4)"/><ellipse class="cls-5" cx="246.31" cy="102.39" rx="3.03" ry="4.91" transform="translate(-11.65 170.26) rotate(-37.31)"/><path class="cls-3" d="M258.62,109.79l3.69,13.77a1.37,1.37,0,0,0,2.37.54c10.38-12.29,38.13-10,27-56.09a1.38,1.38,0,0,0-2.53-.36l-.86,1.49-6.66,11.54a18.34,18.34,0,0,1-11.14,8.54,16.81,16.81,0,0,0-11.87,20.57Z"/><path class="cls-4" d="M258.62,109.79l1.92,7.16c10.28-10.69,34.08-10.32,27.75-47.81l-6.66,11.54a18.34,18.34,0,0,1-11.14,8.54,16.81,16.81,0,0,0-11.87,20.57Z"/><ellipse class="cls-5" cx="276.61" cy="93.08" rx="7.05" ry="4.34" transform="translate(-8.27 156.48) rotate(-31.15)"/><ellipse class="cls-5" cx="265.69" cy="102.39" rx="4.91" ry="3.03" transform="translate(23.2 251.64) rotate(-52.69)"/><path class="cls-3" d="M139.63,196.65A341.54,341.54,0,0,0,189,328.26a3.77,3.77,0,0,1,.57,2.54,3.44,3.44,0,0,1-.26.86,2.78,2.78,0,0,1-1,1.17,3.27,3.27,0,0,1-4.46-1.29,347.7,347.7,0,0,1-50.21-134,3.25,3.25,0,0,1,2.52-3.87,2.8,2.8,0,0,1,1.52.21A3.52,3.52,0,0,1,139.63,196.65Z"/><path class="cls-4" d="M139.63,196.65A341.54,341.54,0,0,0,189,328.26a3.77,3.77,0,0,1,.57,2.54,3.44,3.44,0,0,1-.26.86,3.53,3.53,0,0,1-3-1.71,344.65,344.65,0,0,1-49.78-132.82,3.48,3.48,0,0,1,1.12-3.21A3.52,3.52,0,0,1,139.63,196.65Z"/><path class="cls-3" d="M153.82,283.09q2.09,4.88,4.31,9.7c.35.74-.17,1.53-.9,1.35-10.27-2.93-23.87,11.44-38-24-.35-.93.4-1.73,1.16-1.25l1.06.65q4.11,2.54,8.25,4.94a10.74,10.74,0,0,0,9.31.92,10.3,10.3,0,0,1,8.5.68A14,14,0,0,1,153.82,283.09Z"/><path class="cls-4" d="M153.82,283.09q1.08,2.54,2.21,5.06c-9.6-2.1-21.9,8.94-34.58-18.59q4.11,2.54,8.25,4.94a10.74,10.74,0,0,0,9.31.92,10.3,10.3,0,0,1,8.5.68A14,14,0,0,1,153.82,283.09Z"/><path class="cls-5" d="M137.09,277.1c2.56-.09,4.82,1.27,5.08,3.06s-1.59,3.37-4.14,3.51-4.86-1.26-5.11-3.09S134.54,277.2,137.09,277.1Z"/><path class="cls-5" d="M147.49,279.48c1.75.63,3,2.07,2.77,3.24s-1.83,1.64-3.6,1-3-2.1-2.78-3.28S145.74,278.84,147.49,279.48Z"/><path class="cls-3" d="M144.17,257.79q1.7,5,3.54,10c.28.77-.29,1.51-1,1.28-10-3.7-24.68,9.59-36-26.77-.27-1,.53-1.7,1.26-1.16l1,.73q3.9,2.84,7.85,5.55A10.73,10.73,0,0,0,130,249a10.27,10.27,0,0,1,8.42,1.32A14.06,14.06,0,0,1,144.17,257.79Z"/><path class="cls-4" d="M144.17,257.79q.89,2.61,1.8,5.21c-9.4-2.83-22.51,7.24-33-21.15q3.9,2.84,7.85,5.55A10.73,10.73,0,0,0,130,249a10.27,10.27,0,0,1,8.42,1.32A14.06,14.06,0,0,1,144.17,257.79Z"/><path class="cls-5" d="M128,250.56c2.55.1,4.7,1.62,4.82,3.43s-1.84,3.23-4.4,3.18-4.74-1.62-4.86-3.47S125.4,250.45,128,250.56Z"/><path class="cls-5" d="M138.13,253.72c1.7.76,2.82,2.29,2.51,3.44s-1.95,1.48-3.66.73-2.84-2.33-2.51-3.48S136.44,253,138.13,253.72Z"/><path class="cls-3" d="M136.5,231.86q1.31,5.13,2.76,10.22c.22.78-.4,1.48-1.1,1.19-9.7-4.46-25.33,7.68-33.86-29.46-.2-1,.66-1.65,1.34-1.06l1,.81q3.68,3.13,7.39,6.14A10.74,10.74,0,0,0,123,222a10.21,10.21,0,0,1,8.29,2A14,14,0,0,1,136.5,231.86Z"/><path class="cls-4" d="M136.5,231.86q.67,2.67,1.39,5.33c-9.15-3.54-23,5.5-31.3-23.63q3.68,3.13,7.39,6.14A10.74,10.74,0,0,0,123,222a10.21,10.21,0,0,1,8.29,2A14,14,0,0,1,136.5,231.86Z"/><path class="cls-5" d="M120.89,223.4c2.54.3,4.56,2,4.54,3.79s-2.08,3.09-4.63,2.84-4.6-2-4.57-3.83S118.35,223.1,120.89,223.4Z"/><path class="cls-5" d="M130.79,227.33c1.64.9,2.64,2.51,2.24,3.63s-2.06,1.33-3.71.45-2.65-2.54-2.24-3.67S129.16,226.44,130.79,227.33Z"/><path class="cls-3" d="M130.84,205.41q.9,5.22,2,10.41c.16.8-.52,1.44-1.19,1.1-9.33-5.2-25.85,5.74-31.5-32-.13-1,.79-1.6,1.42-1l.88.88q3.42,3.42,6.91,6.7a10.72,10.72,0,0,0,8.84,3,10.26,10.26,0,0,1,8.12,2.6A14,14,0,0,1,130.84,205.41Z"/><path class="cls-4" d="M130.84,205.41q.47,2.72,1,5.42c-8.85-4.24-23.35,3.73-29.4-26q3.42,3.42,6.91,6.7a10.72,10.72,0,0,0,8.84,3,10.26,10.26,0,0,1,8.12,2.6A14,14,0,0,1,130.84,205.41Z"/><path class="cls-5" d="M115.93,195.76c2.5.5,4.39,2.34,4.23,4.14s-2.31,2.92-4.83,2.47-4.43-2.32-4.27-4.18S113.42,195.26,115.93,195.76Z"/><path class="cls-5" d="M125.5,200.45c1.56,1,2.44,2.71,2,3.79s-2.15,1.18-3.73.17-2.45-2.74-2-3.84S123.94,199.44,125.5,200.45Z"/><path class="cls-3" d="M131,181.72c.1,3.5.25,7,.46,10.49.05.81-.72,1.34-1.34.89-8.5-6.59-26.48,1.15-26.59-36.67,0-1,1-1.42,1.55-.68l.74,1q2.89,3.94,5.87,7.75A11.06,11.06,0,0,0,120,169a10.67,10.67,0,0,1,7.67,3.91A14.16,14.16,0,0,1,131,181.72Z"/><path class="cls-4" d="M131,181.72c0,1.82.12,3.64.2,5.46-8.17-5.57-23.7-.34-25.38-30.41q2.89,3.94,5.87,7.75A11.06,11.06,0,0,0,120,169a10.67,10.67,0,0,1,7.67,3.91A14.16,14.16,0,0,1,131,181.72Z"/><path class="cls-5" d="M117.6,169.79c2.41.92,4,3,3.6,4.76s-2.71,2.46-5.14,1.59-4.06-3-3.62-4.82S115.19,168.88,117.6,169.79Z"/><path class="cls-5" d="M126.41,176c1.4,1.25,2,3,1.39,4s-2.3.79-3.72-.46-2-3.08-1.38-4.07S125,174.73,126.41,176Z"/><path class="cls-3" d="M166.76,277.57q2,4.68,4.14,9.31a.88.88,0,0,0,1.6.15c5.39-9.51,22.28-10.51,12.13-39.7a.88.88,0,0,0-1.64-.13l-.48,1c-1.23,2.63-2.43,5.28-3.6,8a11.8,11.8,0,0,1-6.53,6.39,10.18,10.18,0,0,0-5.89,6A12.05,12.05,0,0,0,166.76,277.57Z"/><path class="cls-4" d="M166.76,277.57c.69,1.63,1.4,3.24,2.12,4.86,5.54-8.29,20.1-10.08,13.63-34.22-1.23,2.63-2.43,5.28-3.6,8a11.8,11.8,0,0,1-6.53,6.39,10.18,10.18,0,0,0-5.89,6A12.05,12.05,0,0,0,166.76,277.57Z"/><path class="cls-5" d="M174.89,262.44c-2,1.56-2.79,3.93-1.79,5.25s3.4,1.08,5.35-.52,2.76-3.92,1.79-5.2S176.88,260.88,174.89,262.44Z"/><path class="cls-5" d="M168.77,270.81c-.85,1.6-.73,3.41.24,4s2.42-.22,3.25-1.83.74-3.37-.22-4S169.61,269.21,168.77,270.81Z"/><path class="cls-3" d="M157.49,253.29q1.63,4.82,3.4,9.58a.88.88,0,0,0,1.58.27c6.11-9.06,23-8.75,15.18-38.61a.89.89,0,0,0-1.64-.25l-.55,1q-2.15,3.78-4.2,7.66a11.82,11.82,0,0,1-7,5.86,10.17,10.17,0,0,0-6.33,5.52A12,12,0,0,0,157.49,253.29Z"/><path class="cls-4" d="M157.49,253.29c.57,1.67,1.14,3.33,1.73,5,6.18-7.83,20.83-8.48,16.24-33q-2.15,3.78-4.2,7.66a11.82,11.82,0,0,1-7,5.86,10.17,10.17,0,0,0-6.33,5.52A12,12,0,0,0,157.49,253.29Z"/><path class="cls-5" d="M166.77,238.84c-2.1,1.4-3.08,3.71-2.19,5.1s3.3,1.33,5.37-.12,3.05-3.68,2.19-5S168.87,237.44,166.77,238.84Z"/><path class="cls-5" d="M160,246.71c-1,1.54-1,3.34-.07,4s2.43,0,3.38-1.57,1-3.3.09-4S161,245.17,160,246.71Z"/><path class="cls-3" d="M150.13,228.4q1.25,4.92,2.65,9.8a.88.88,0,0,0,1.56.39c6.78-8.56,23.64-6.93,18.09-37.32a.88.88,0,0,0-1.61-.37c-.21.3-.42.61-.62.92q-2.43,3.62-4.78,7.32a11.79,11.79,0,0,1-7.44,5.31,10.24,10.24,0,0,0-6.74,5A12,12,0,0,0,150.13,228.4Z"/><path class="cls-4" d="M150.13,228.4q.65,2.55,1.34,5.1c6.76-7.34,21.41-6.84,18.73-31.68q-2.43,3.62-4.78,7.32a11.79,11.79,0,0,1-7.44,5.31,10.24,10.24,0,0,0-6.74,5A12,12,0,0,0,150.13,228.4Z"/><path class="cls-5" d="M160.49,214.71c-2.21,1.23-3.36,3.45-2.58,4.91s3.19,1.57,5.37.3,3.32-3.45,2.56-4.86S162.69,213.47,160.49,214.71Z"/><path class="cls-5" d="M153.15,222c-1.08,1.46-1.25,3.26-.38,4s2.43.15,3.49-1.31,1.25-3.22.4-4S154.23,220.58,153.15,222Z"/><path class="cls-3" d="M144.7,203q.87,5,1.89,10a.88.88,0,0,0,1.52.51c7.43-8,24.11-5.09,20.91-35.86a.89.89,0,0,0-1.58-.5c-.23.29-.46.59-.7.88q-2.69,3.42-5.32,6.94a11.78,11.78,0,0,1-7.82,4.73,10.21,10.21,0,0,0-7.11,4.49A12,12,0,0,0,144.7,203Z"/><path class="cls-4" d="M144.7,203c.3,1.74.61,3.47.94,5.21,7.3-6.81,21.88-5.18,21.1-30.19q-2.69,3.42-5.32,6.94a11.78,11.78,0,0,1-7.82,4.73,10.21,10.21,0,0,0-7.11,4.49A12,12,0,0,0,144.7,203Z"/><path class="cls-5" d="M156.08,190.14c-2.3,1.07-3.62,3.19-3,4.7s3.06,1.82,5.33.71,3.58-3.17,2.93-4.65S158.37,189.07,156.08,190.14Z"/><path class="cls-5" d="M148.2,196.89c-1.19,1.36-1.49,3.15-.69,4s2.41.34,3.59-1,1.49-3.12.69-3.93S149.39,195.52,148.2,196.89Z"/><path class="cls-3" d="M138.16,181q.93,5.06,2,10.06a.88.88,0,0,0,1.53.48c7.29-8.38,24-5.55,20.42-36.84a.88.88,0,0,0-1.58-.49l-.69.91q-2.66,3.53-5.23,7.17a11.94,11.94,0,0,1-7.76,5,10.29,10.29,0,0,0-7,4.74A12.55,12.55,0,0,0,138.16,181Z"/><path class="cls-4" d="M138.16,181q.48,2.63,1,5.25c7.19-7.15,21.77-5.67,20.69-31.13q-2.66,3.53-5.23,7.17a11.94,11.94,0,0,1-7.76,5,10.29,10.29,0,0,0-7,4.74A12.55,12.55,0,0,0,138.16,181Z"/><path class="cls-5" d="M149.35,167.62c-2.28,1.13-3.57,3.32-2.88,4.84s3.08,1.78,5.33.61,3.53-3.29,2.87-4.78S151.62,166.48,149.35,167.62Z"/><path class="cls-5" d="M141.57,174.66c-1.17,1.42-1.45,3.24-.63,4s2.41.28,3.56-1.14,1.45-3.2.65-4S142.74,173.24,141.57,174.66Z"/><path class="cls-3" d="M131.24,158.59q-1,5.1-1.84,10.26a.85.85,0,0,1-1.5.5c-6.87-8.53-26-6.32-17.81-42.62a.84.84,0,0,1,1.64-.2c.16.39.33.79.5,1.18q1.93,4.61,4,9.09a11.89,11.89,0,0,0,7.1,6.61,11.57,11.57,0,0,1,6.61,5.82A14.49,14.49,0,0,1,131.24,158.59Z"/><path class="cls-4" d="M131.24,158.59q-.53,2.66-1,5.32c-6.76-7.46-23-6.88-18-36.2q1.93,4.61,4,9.09a11.89,11.89,0,0,0,7.1,6.61,11.57,11.57,0,0,1,6.61,5.82A14.49,14.49,0,0,1,131.24,158.59Z"/><path class="cls-5" d="M120.81,143.51c2.14,1.54,3.24,4,2.46,5.56s-3.17,1.62-5.35.11-3.27-4.05-2.46-5.64S118.67,142,120.81,143.51Z"/><path class="cls-5" d="M128,151.85c1.09,1.59,1.3,3.47.47,4.25s-2.41.15-3.52-1.44-1.31-3.52-.46-4.29S126.93,150.28,128,151.85Z"/><path class="cls-3" d="M134.62,158.45q1.38,5,2.91,9.85a.86.86,0,0,0,1.56.28c6.47-9.43,23.31-8.11,17-39.54a.87.87,0,0,0-1.62-.33l-.6,1q-2.34,3.88-4.59,7.87a12.5,12.5,0,0,1-7.28,5.94,10.74,10.74,0,0,0-6.56,5.65A13.06,13.06,0,0,0,134.62,158.45Z"/><path class="cls-4" d="M134.62,158.45q.72,2.6,1.48,5.14c6.48-8.17,21.09-8.12,17.8-33.89q-2.34,3.88-4.59,7.87a12.5,12.5,0,0,1-7.28,5.94,10.74,10.74,0,0,0-6.56,5.65A13.06,13.06,0,0,0,134.62,158.45Z"/><path class="cls-5" d="M144.54,143.62c-2.17,1.41-3.25,3.78-2.43,5.24s3.21,1.43,5.35,0,3.22-3.72,2.42-5.16S146.7,142.2,144.54,143.62Z"/><path class="cls-5" d="M137.44,151.67c-1,1.58-1.15,3.46-.27,4.16s2.42,0,3.44-1.59,1.15-3.4.28-4.11S138.47,150.09,137.44,151.67Z"/><path class="cls-3" d="M378.41,197.58a347.7,347.7,0,0,1-50.21,134,3.72,3.72,0,0,1-2.09,1.61,3.48,3.48,0,0,1-.9.12,2.78,2.78,0,0,1-1.47-.44,3.3,3.3,0,0,1-.7-4.57,341.54,341.54,0,0,0,49.33-131.61,3.27,3.27,0,0,1,3.52-2.94,2.79,2.79,0,0,1,1.41.63A3.53,3.53,0,0,1,378.41,197.58Z"/><path class="cls-4" d="M378.41,197.58a347.7,347.7,0,0,1-50.21,134,3.72,3.72,0,0,1-2.09,1.61,3.48,3.48,0,0,1-.9.12,3.66,3.66,0,0,1,.32-3.43A344.48,344.48,0,0,0,375.29,197.1a3.56,3.56,0,0,1,2-2.76A3.53,3.53,0,0,1,378.41,197.58Z"/><path class="cls-3" d="M345.24,277.57q-2,4.68-4.14,9.31a.88.88,0,0,1-1.6.15c-5.39-9.51-22.28-10.51-12.13-39.7a.88.88,0,0,1,1.64-.13l.48,1c1.23,2.63,2.43,5.28,3.6,8a11.8,11.8,0,0,0,6.53,6.39,10.18,10.18,0,0,1,5.89,6A12.05,12.05,0,0,1,345.24,277.57Z"/><path class="cls-4" d="M345.24,277.57c-.69,1.63-1.4,3.24-2.12,4.86-5.55-8.29-20.1-10.08-13.63-34.22,1.23,2.63,2.43,5.28,3.6,8a11.8,11.8,0,0,0,6.53,6.39,10.18,10.18,0,0,1,5.89,6A12.05,12.05,0,0,1,345.24,277.57Z"/><path class="cls-5" d="M337.11,262.44c2,1.56,2.79,3.93,1.79,5.25s-3.4,1.08-5.35-.53-2.76-3.91-1.79-5.19S335.12,260.88,337.11,262.44Z"/><path class="cls-5" d="M343.23,270.81c.85,1.6.73,3.41-.24,4s-2.42-.22-3.25-1.83-.74-3.37.22-4S342.39,269.21,343.23,270.81Z"/><path class="cls-3" d="M354.51,253.29q-1.63,4.82-3.4,9.58a.89.89,0,0,1-1.59.27c-6.11-9.06-23-8.75-15.17-38.61a.89.89,0,0,1,1.64-.25l.55,1q2.15,3.78,4.2,7.66a11.82,11.82,0,0,0,7,5.86,10.17,10.17,0,0,1,6.33,5.52A12.06,12.06,0,0,1,354.51,253.29Z"/><path class="cls-4" d="M354.51,253.29c-.57,1.67-1.14,3.33-1.73,5-6.18-7.83-20.83-8.48-16.24-33q2.15,3.78,4.2,7.66a11.82,11.82,0,0,0,7,5.86,10.17,10.17,0,0,1,6.33,5.52A12.06,12.06,0,0,1,354.51,253.29Z"/><path class="cls-5" d="M345.23,238.84c2.1,1.4,3.08,3.71,2.19,5.1s-3.3,1.33-5.37-.12-3.05-3.68-2.19-5S343.13,237.44,345.23,238.84Z"/><path class="cls-5" d="M352,246.71c1,1.54,1,3.34.07,4s-2.43,0-3.38-1.57-1-3.3-.09-4S351,245.17,352,246.71Z"/><path class="cls-3" d="M361.87,228.39c-.83,3.29-1.72,6.55-2.65,9.81a.88.88,0,0,1-1.56.39c-6.78-8.56-23.64-6.93-18.09-37.32a.88.88,0,0,1,1.61-.37c.21.3.41.61.62.92q2.43,3.62,4.78,7.32a11.79,11.79,0,0,0,7.44,5.31,10.24,10.24,0,0,1,6.74,5A12,12,0,0,1,361.87,228.39Z"/><path class="cls-4" d="M361.87,228.39q-.64,2.56-1.34,5.11c-6.76-7.34-21.41-6.84-18.73-31.68q2.43,3.62,4.78,7.32a11.79,11.79,0,0,0,7.44,5.31,10.24,10.24,0,0,1,6.74,5A12,12,0,0,1,361.87,228.39Z"/><path class="cls-5" d="M351.51,214.71c2.21,1.23,3.36,3.45,2.58,4.91s-3.19,1.57-5.37.3-3.32-3.45-2.57-4.86S349.31,213.47,351.51,214.71Z"/><path class="cls-5" d="M358.85,222c1.08,1.46,1.25,3.26.38,4s-2.43.15-3.49-1.31-1.25-3.22-.4-4S357.77,220.58,358.85,222Z"/><path class="cls-3" d="M367.3,203q-.87,5-1.89,10a.88.88,0,0,1-1.52.51c-7.43-8-24.11-5.09-20.91-35.86a.89.89,0,0,1,1.58-.5l.69.88q2.7,3.42,5.33,6.94a11.78,11.78,0,0,0,7.82,4.73,10.21,10.21,0,0,1,7.11,4.49A12,12,0,0,1,367.3,203Z"/><path class="cls-4" d="M367.3,203c-.3,1.74-.61,3.47-.94,5.21-7.3-6.81-21.88-5.18-21.11-30.19q2.7,3.42,5.33,6.94a11.78,11.78,0,0,0,7.82,4.73,10.21,10.21,0,0,1,7.11,4.49A12,12,0,0,1,367.3,203Z"/><path class="cls-5" d="M355.92,190.14c2.3,1.07,3.62,3.19,2.95,4.7s-3.06,1.82-5.33.71-3.58-3.17-2.93-4.65S353.63,189.07,355.92,190.14Z"/><path class="cls-5" d="M363.8,196.89c1.19,1.36,1.49,3.15.69,4s-2.41.34-3.59-1-1.49-3.12-.69-3.93S362.61,195.52,363.8,196.89Z"/><path class="cls-3" d="M373.84,181q-.93,5.06-2,10.06a.88.88,0,0,1-1.53.48c-7.29-8.38-24-5.55-20.42-36.84a.88.88,0,0,1,1.58-.49l.69.91q2.66,3.53,5.23,7.17a11.91,11.91,0,0,0,7.76,5,10.29,10.29,0,0,1,7,4.74A12.55,12.55,0,0,1,373.84,181Z"/><path class="cls-4" d="M373.84,181q-.48,2.63-1,5.25c-7.19-7.15-21.77-5.67-20.69-31.13q2.66,3.53,5.23,7.17a11.91,11.91,0,0,0,7.76,5,10.29,10.29,0,0,1,7,4.74A12.55,12.55,0,0,1,373.84,181Z"/><path class="cls-5" d="M362.65,167.62c2.28,1.13,3.57,3.32,2.88,4.84s-3.08,1.78-5.33.61-3.53-3.29-2.87-4.78S360.38,166.48,362.65,167.62Z"/><path class="cls-5" d="M370.43,174.66c1.17,1.42,1.45,3.24.63,4s-2.41.28-3.56-1.14-1.45-3.2-.65-4S369.26,173.24,370.43,174.66Z"/><path class="cls-3" d="M358.18,283.09q-2.08,4.88-4.31,9.7c-.35.74.17,1.53.9,1.35,10.27-2.93,23.87,11.44,38-24,.35-.93-.4-1.73-1.16-1.25l-1.06.65q-4.11,2.54-8.25,4.94a10.74,10.74,0,0,1-9.31.92,10.3,10.3,0,0,0-8.5.68A14,14,0,0,0,358.18,283.09Z"/><path class="cls-4" d="M358.18,283.09q-1.08,2.54-2.21,5.06c9.6-2.1,21.9,8.94,34.58-18.59q-4.11,2.54-8.25,4.94a10.74,10.74,0,0,1-9.31.92,10.3,10.3,0,0,0-8.5.68A14,14,0,0,0,358.18,283.09Z"/><path class="cls-5" d="M374.91,277.1c-2.56-.09-4.82,1.27-5.08,3.06s1.59,3.37,4.14,3.51,4.85-1.26,5.11-3.09S377.46,277.2,374.91,277.1Z"/><path class="cls-5" d="M364.51,279.48c-1.75.63-3,2.07-2.77,3.24s1.83,1.64,3.6,1,3-2.1,2.78-3.28S366.26,278.84,364.51,279.48Z"/><path class="cls-3" d="M367.83,257.79q-1.69,5-3.54,10c-.29.77.29,1.51,1,1.28,10-3.7,24.68,9.59,36-26.77.27-1-.53-1.7-1.26-1.16l-1,.73q-3.9,2.84-7.85,5.55A10.73,10.73,0,0,1,382,249a10.27,10.27,0,0,0-8.42,1.32A14.06,14.06,0,0,0,367.83,257.79Z"/><path class="cls-4" d="M367.83,257.79q-.88,2.61-1.8,5.21c9.4-2.83,22.51,7.24,33-21.15q-3.9,2.84-7.85,5.55A10.73,10.73,0,0,1,382,249a10.27,10.27,0,0,0-8.42,1.32A14.06,14.06,0,0,0,367.83,257.79Z"/><path class="cls-5" d="M384,250.56c-2.55.1-4.7,1.62-4.82,3.43s1.84,3.23,4.4,3.18,4.74-1.62,4.86-3.47S386.6,250.45,384,250.56Z"/><path class="cls-5" d="M373.86,253.72c-1.69.76-2.81,2.29-2.5,3.44s1.95,1.48,3.66.73,2.84-2.33,2.51-3.48S375.56,253,373.86,253.72Z"/><path class="cls-3" d="M375.5,231.86q-1.31,5.13-2.76,10.22c-.22.78.4,1.48,1.1,1.19,9.7-4.46,25.33,7.68,33.86-29.46.2-1-.66-1.65-1.34-1.06l-.95.81q-3.68,3.13-7.39,6.14A10.75,10.75,0,0,1,389,222a10.21,10.21,0,0,0-8.29,2A14,14,0,0,0,375.5,231.86Z"/><path class="cls-4" d="M375.5,231.86q-.67,2.67-1.4,5.33c9.16-3.54,23,5.5,31.31-23.63q-3.68,3.13-7.39,6.14A10.75,10.75,0,0,1,389,222a10.21,10.21,0,0,0-8.29,2A14,14,0,0,0,375.5,231.86Z"/><path class="cls-5" d="M391.11,223.4c-2.54.3-4.56,2-4.54,3.79s2.08,3.09,4.63,2.84,4.6-2,4.57-3.83S393.65,223.1,391.11,223.4Z"/><path class="cls-5" d="M381.2,227.33c-1.63.9-2.63,2.51-2.23,3.63s2.06,1.33,3.71.45,2.65-2.54,2.24-3.67S382.84,226.44,381.2,227.33Z"/><path class="cls-3" d="M381.16,205.41q-.9,5.22-2,10.41c-.16.8.52,1.44,1.19,1.1,9.33-5.2,25.85,5.73,31.5-32,.12-1-.79-1.6-1.42-1l-.88.88q-3.42,3.42-6.91,6.7a10.73,10.73,0,0,1-8.85,3,10.25,10.25,0,0,0-8.11,2.6A14,14,0,0,0,381.16,205.41Z"/><path class="cls-4" d="M381.16,205.41q-.46,2.72-1,5.42c8.86-4.24,23.36,3.73,29.41-26q-3.42,3.42-6.91,6.7a10.73,10.73,0,0,1-8.85,3,10.25,10.25,0,0,0-8.11,2.6A14,14,0,0,0,381.16,205.41Z"/><path class="cls-5" d="M396.07,195.76c-2.5.5-4.39,2.34-4.23,4.14s2.31,2.92,4.83,2.47,4.43-2.32,4.26-4.18S398.58,195.26,396.07,195.76Z"/><path class="cls-5" d="M386.5,200.45c-1.56,1-2.44,2.71-1.95,3.79s2.15,1.18,3.73.17,2.45-2.74,2-3.84S388.06,199.44,386.5,200.45Z"/><path class="cls-3" d="M381,181.72c-.1,3.5-.25,7-.46,10.49-.05.81.72,1.34,1.34.89,8.5-6.59,26.48,1.15,26.59-36.67,0-1-1-1.42-1.55-.68l-.74,1q-2.9,3.94-5.87,7.75A11.06,11.06,0,0,1,392,169a10.67,10.67,0,0,0-7.67,3.91A14.16,14.16,0,0,0,381,181.72Z"/><path class="cls-4" d="M381,181.72c-.05,1.82-.12,3.64-.2,5.46,8.17-5.58,23.7-.34,25.38-30.41q-2.9,3.94-5.87,7.75A11.06,11.06,0,0,1,392,169a10.67,10.67,0,0,0-7.67,3.91A14.16,14.16,0,0,0,381,181.72Z"/><path class="cls-5" d="M394.4,169.79c-2.41.92-4,3-3.6,4.76s2.71,2.46,5.14,1.59,4.06-3,3.62-4.82S396.81,168.88,394.4,169.79Z"/><path class="cls-5" d="M385.59,176c-1.4,1.25-2,3-1.39,4s2.3.79,3.72-.46,2-3.08,1.38-4.07S387,174.73,385.59,176Z"/><path class="cls-3" d="M377.38,158.45c-.92,3.31-1.9,6.6-2.91,9.85a.86.86,0,0,1-1.56.28c-6.47-9.43-23.31-8.11-17-39.54a.87.87,0,0,1,1.62-.33l.6,1q2.34,3.88,4.59,7.87a12.5,12.5,0,0,0,7.28,5.94,10.74,10.74,0,0,1,6.56,5.65A13.06,13.06,0,0,1,377.38,158.45Z"/><path class="cls-4" d="M377.38,158.45q-.72,2.6-1.48,5.14c-6.48-8.17-21.09-8.12-17.8-33.89q2.34,3.88,4.59,7.87a12.5,12.5,0,0,0,7.28,5.94,10.74,10.74,0,0,1,6.56,5.65A13.06,13.06,0,0,1,377.38,158.45Z"/><path class="cls-5" d="M367.46,143.62c2.16,1.41,3.25,3.78,2.43,5.24s-3.21,1.43-5.35,0-3.22-3.72-2.42-5.16S365.3,142.2,367.46,143.62Z"/><path class="cls-5" d="M374.56,151.67c1,1.58,1.15,3.46.26,4.16s-2.41,0-3.43-1.59-1.15-3.4-.28-4.11S373.53,150.09,374.56,151.67Z"/><path class="cls-3" d="M380.76,158.59q1,5.1,1.84,10.26a.85.85,0,0,0,1.5.5c6.87-8.53,26-6.32,17.81-42.62a.84.84,0,0,0-1.64-.2c-.16.39-.33.79-.5,1.18q-1.93,4.61-4,9.09a11.89,11.89,0,0,1-7.1,6.61,11.57,11.57,0,0,0-6.61,5.82A14.49,14.49,0,0,0,380.76,158.59Z"/><path class="cls-4" d="M380.76,158.59q.53,2.66,1,5.32c6.76-7.46,23-6.88,18-36.2q-1.93,4.61-4,9.09a11.89,11.89,0,0,1-7.1,6.61,11.57,11.57,0,0,0-6.61,5.82A14.49,14.49,0,0,0,380.76,158.59Z"/><path class="cls-5" d="M391.19,143.51c-2.14,1.54-3.24,4-2.46,5.56s3.17,1.62,5.35.11,3.27-4.05,2.46-5.64S393.33,142,391.19,143.51Z"/><path class="cls-5" d="M384,151.85c-1.09,1.59-1.3,3.47-.47,4.25s2.41.15,3.52-1.44,1.31-3.52.46-4.29S385.07,150.28,384,151.85Z"/><path class="cls-6" d="M393.4,366.25a8.43,8.43,0,0,1-.66.71l-.25.25c-6.81,6.83-12.71,13.39-18,19.66-38.32,45.3-45.38,75.06-138.76,75.06-55.23,0-64.4,6.59-76,31.33-3.64-1.48-7.23-3-10.78-4.68a255,255,0,0,1-49.58-30.12q-6.4-4.95-12.48-10.31l48.34-48.33c63.75-63.74,84.9-50.57,96.35-50.57,6,0,14.93-5.47,22.17-10.73,6.69-4.84,11.9-9.5,11.9-9.5,3.62-3.62,7-5.55,9.92-6.19,8-1.74,13,6,12.09,14.83a22.42,22.42,0,0,1-6.56,13.62c-5.72,5.71-48.38,31-48.38,31h63.94c23.36,0,43.27-52.06,65.49-52.06,11.61,0,17.15,2.93,19.79,5.73a8,8,0,0,1,2.42,5L381.76,344h0l-.08.09-.31.38-.08.1L373,354.48h.31c1.91.13,12.07.92,17.81,3.69C394.78,360,396.63,362.53,393.4,366.25Z"/><path class="cls-7" d="M390.44,364.93l-1.31-.53h-.06c-.73-.29-1.45-.56-2.14-.82l-.26-.1h0c-2.07-.75-3.84-1.32-5-1.7-5.74-1.95-13.28-1.14-13.28-1.14l4.7-5.85v0l.21-.26,7.72-9.6.07-.1.18-.23.08-.1.31-.38c-.59-.47-1.33-1.08-2.2-1.65l0,0h0a12.18,12.18,0,0,0-2-1.09,9.35,9.35,0,0,0-3.65-.75c-22.21,0-45.86,56.55-69.22,56.55H240.61s12.23-7.25,24.48-14.86H232.68s42.66-25.26,48.38-31a22.42,22.42,0,0,0,6.56-13.62c-3.75-.85-8.61.74-14.09,6.22,0,0-22.62,20.23-34.07,20.23s-32.6-13.17-96.34,50.56L99.33,458.46a255,255,0,0,0,49.58,30.12c3.55,1.65,7.14,3.2,10.78,4.68,11.63-24.74,20.8-31.33,76-31.33,93.38,0,100.44-29.76,138.76-75.06,5.3-6.27,11.2-12.83,18-19.66l.25-.25a8.43,8.43,0,0,0,.66-.71C392.42,365.78,391.43,365.34,390.44,364.93Z"/><path class="cls-6" d="M391.14,358.18c-.86,1.07-1.75,2.19-2.67,3.38l-1.52,2h0l0,0q-8.28,10.69-15.7,19.79c-52,63.69-75.41,71.07-118.15,71.07-82.45,0-92,5.24-104.17,34.16,3.55,1.65,7.14,3.2,10.78,4.68,11.63-24.74,20.8-31.33,76-31.33,93.38,0,100.44-29.76,138.76-75.06,5.3-6.27,11.2-12.83,18-19.66l.25-.25a8.43,8.43,0,0,0,.66-.71C396.63,362.53,394.78,360,391.14,358.18Z"/><path class="cls-6" d="M384.32,340.91,381.77,344h0l-.39.47-.08.1-8.22,9.92-8.25,9.95-26.52,32c-12.11,12.11-24.25,26-43.37,26,0,0,31.63-14.34,45.19-33.68,5.41-7.71,13.53-18.13,21.36-27.87v0l.42-.51c5.49-6.83,10.79-13.28,14.85-18.19l.39-.48h0l.26-.32c1.8-2.17,3.33-4,4.49-5.39A8,8,0,0,1,384.32,340.91Z"/><path class="cls-8" d="M274.54,335.31l-5.2,5.2a9.65,9.65,0,0,1-13.65,0l-1.78-1.78-.2-.21c6.69-4.84,11.9-9.5,11.9-9.5,3.62-3.62,7-5.55,9.92-6.19A9.65,9.65,0,0,1,274.54,335.31Z"/><path class="cls-9" d="M382.07,344.27a9.65,9.65,0,0,0-13.65,0l-5.2,5.19c-3.77,3.77-4.65,10.47,1.62,15Z"/><path class="cls-8" d="M381.77,344a9.57,9.57,0,0,0-4.63-2.37l-15.65,19.18a8.21,8.21,0,0,0,3.35,3.62Z"/><path class="cls-9" d="M392.49,367.21c-6.81,6.83-12.71,13.39-18,19.66l-.21-.2-1.78-1.78a4.61,4.61,0,0,1-.37-.4q-.31-.35-.6-.72l-.29-.42a9.66,9.66,0,0,1,1.26-12.11l5.19-5.2a9.66,9.66,0,0,1,9-2.58h0l.28.07a9.74,9.74,0,0,1,2.16.86h0l.14.08a8.73,8.73,0,0,1,.94.6l.2.16.34.26.22.2.36.34Z"/><path class="cls-8" d="M392.49,367.21c-6.81,6.83-12.71,13.39-18,19.66l-.21-.2-1.78-1.78a4.61,4.61,0,0,1-.37-.4q-.31-.35-.6-.72l-.29-.42q7.44-9.11,15.7-19.79h0l0,0a9.37,9.37,0,0,1,2.12.84h.05l.15.08a10.61,10.61,0,0,1,.94.6l.2.16.34.26.22.2.36.34Z"/></svg>